<svg width="32" height="30" viewBox="0 0 32 30" fill="none" xmlns="http://www.w3.org/2000/svg">
<path fill-rule="evenodd" clip-rule="evenodd" d="M16 0.75C16.3481 0.75 16.6819 0.875111 16.9281 1.09781C17.1742 1.32051 17.3125 1.62256 17.3125 1.9375V13.8125H30.4375C30.7856 13.8125 31.1194 13.9376 31.3656 14.1603C31.6117 14.383 31.75 14.6851 31.75 15C31.75 15.3149 31.6117 15.617 31.3656 15.8397C31.1194 16.0624 30.7856 16.1875 30.4375 16.1875H17.3125V28.0625C17.3125 28.3774 17.1742 28.6795 16.9281 28.9022C16.6819 29.1249 16.3481 29.25 16 29.25C15.6519 29.25 15.3181 29.1249 15.0719 28.9022C14.8258 28.6795 14.6875 28.3774 14.6875 28.0625V16.1875H1.5625C1.2144 16.1875 0.880564 16.0624 0.634423 15.8397C0.388281 15.617 0.25 15.3149 0.25 15C0.25 14.6851 0.388281 14.383 0.634423 14.1603C0.880564 13.9376 1.2144 13.8125 1.5625 13.8125H14.6875V1.9375C14.6875 1.62256 14.8258 1.32051 15.0719 1.09781C15.3181 0.875111 15.6519 0.75 16 0.75Z" fill="#226D13"/>
</svg>
