<svg width="31" height="31" viewBox="0 0 31 31" fill="none" xmlns="http://www.w3.org/2000/svg">
<path d="M0 1.09375C0 0.803669 0.125111 0.52547 0.347811 0.320352C0.57051 0.115234 0.872555 0 1.1875 0H29.6875C30.0024 0 30.3045 0.115234 30.5272 0.320352C30.7499 0.52547 30.875 0.803669 30.875 1.09375V5.46875C30.8749 5.73849 30.7667 5.99869 30.571 6.19938L20.1875 16.8263V27.3438C20.1873 27.5732 20.1088 27.7968 19.963 27.9829C19.8172 28.169 19.6116 28.3081 19.3752 28.3806L12.2502 30.5681C12.0718 30.6229 11.8818 30.6378 11.6959 30.6117C11.51 30.5855 11.3335 30.5191 11.1809 30.4179C11.0283 30.3166 10.904 30.1835 10.8182 30.0293C10.7324 29.8752 10.6876 29.7045 10.6875 29.5312V16.8263L0.304 6.19938C0.108319 5.99869 5.26071e-05 5.73849 0 5.46875V1.09375ZM2.375 2.1875V5.04875L12.7585 15.6756C12.9542 15.8763 13.0624 16.1365 13.0625 16.4062V28.0131L17.8125 26.5563V16.4062C17.8126 16.1365 17.9208 15.8763 18.1165 15.6756L28.5 5.04875V2.1875H2.375Z" fill="#226D13"/>
</svg>
