<svg width="38" height="42" viewBox="0 0 38 42" fill="none" xmlns="http://www.w3.org/2000/svg">
<path d="M20.0348 0.554253C19.899 0.416793 19.7377 0.307734 19.5602 0.233321C19.3826 0.158909 19.1922 0.120605 19 0.120605C18.8078 0.120605 18.6174 0.158909 18.4398 0.233321C18.2623 0.307734 18.101 0.416793 17.9652 0.554253L0.426772 18.267C0.291136 18.4043 0.18363 18.5673 0.110402 18.7466C0.0371741 18.9259 -0.000340684 19.118 2.33114e-06 19.312V39.9769C2.33114e-06 40.3683 0.153985 40.7438 0.428077 41.0206C0.702168 41.2974 1.07392 41.4529 1.46154 41.4529H14.6154C15.003 41.4529 15.3748 41.2974 15.6488 41.0206C15.9229 40.7438 16.0769 40.3683 16.0769 39.9769V28.1684H21.9231V39.9769C21.9231 40.3683 22.0771 40.7438 22.3511 41.0206C22.6252 41.2974 22.997 41.4529 23.3846 41.4529H36.5385C36.9261 41.4529 37.2978 41.2974 37.5719 41.0206C37.846 40.7438 38 40.3683 38 39.9769V19.312C38.0003 19.118 37.9628 18.9259 37.8896 18.7466C37.8164 18.5673 37.7089 18.4043 37.5732 18.267L33.6154 14.2728V4.55142C33.6154 4.15995 33.4614 3.78451 33.1873 3.50769C32.9132 3.23088 32.5415 3.07536 32.1538 3.07536H29.2308C28.8431 3.07536 28.4714 3.23088 28.1973 3.50769C27.9232 3.78451 27.7692 4.15995 27.7692 4.55142V8.36851L20.0348 0.554253ZM2.92308 38.5008V19.9231L19 3.68645L35.0769 19.9231V38.5008H24.8462V26.6923C24.8462 26.3008 24.6922 25.9254 24.4181 25.6486C24.144 25.3718 23.7722 25.2163 23.3846 25.2163H14.6154C14.2278 25.2163 13.856 25.3718 13.5819 25.6486C13.3078 25.9254 13.1538 26.3008 13.1538 26.6923V38.5008H2.92308Z" fill="#226D13"/>
</svg>
