<svg width="50" height="44" viewBox="0 0 50 44" fill="none" xmlns="http://www.w3.org/2000/svg">
<path d="M38.0188 24.585C36.3813 27.5055 34.1625 30.415 31.8938 33.0275C29.7392 35.4888 27.4381 37.8479 25 40.095C22.5619 37.8479 20.2608 35.4888 18.1063 33.0275C15.8375 30.415 13.6188 27.5055 11.9813 24.585C10.325 21.6342 9.375 18.8705 9.375 16.5C9.375 12.8533 11.0212 9.35591 13.9515 6.77728C16.8817 4.19866 20.856 2.75 25 2.75C29.144 2.75 33.1183 4.19866 36.0485 6.77728C38.9788 9.35591 40.625 12.8533 40.625 16.5C40.625 18.8705 39.6719 21.6342 38.0188 24.585ZM25 44C25 44 43.75 28.3635 43.75 16.5C43.75 12.1239 41.7746 7.92709 38.2583 4.83274C34.7419 1.73839 29.9728 0 25 0C20.0272 0 15.2581 1.73839 11.7417 4.83274C8.22544 7.92709 6.25 12.1239 6.25 16.5C6.25 28.3635 25 44 25 44Z" fill="#226D13"/>
<path d="M25 22C23.3424 22 21.7527 21.4205 20.5806 20.3891C19.4085 19.3576 18.75 17.9587 18.75 16.5C18.75 15.0413 19.4085 13.6424 20.5806 12.6109C21.7527 11.5795 23.3424 11 25 11C26.6576 11 28.2473 11.5795 29.4194 12.6109C30.5915 13.6424 31.25 15.0413 31.25 16.5C31.25 17.9587 30.5915 19.3576 29.4194 20.3891C28.2473 21.4205 26.6576 22 25 22ZM25 24.75C27.4864 24.75 29.871 23.8808 31.6291 22.3336C33.3873 20.7865 34.375 18.688 34.375 16.5C34.375 14.312 33.3873 12.2135 31.6291 10.6664C29.871 9.11919 27.4864 8.25 25 8.25C22.5136 8.25 20.129 9.11919 18.3709 10.6664C16.6127 12.2135 15.625 14.312 15.625 16.5C15.625 18.688 16.6127 20.7865 18.3709 22.3336C20.129 23.8808 22.5136 24.75 25 24.75Z" fill="#226D13"/>
</svg>
