<svg width="56" height="50" viewBox="0 0 56 50" fill="none" xmlns="http://www.w3.org/2000/svg">
<g clip-path="url(#clip0_51_488)">
<path d="M29.75 31.25C28.784 31.25 28 29.85 28 28.125C28 26.4 28.784 25 29.75 25C30.716 25 31.5 26.4 31.5 28.125C31.5 29.85 30.716 31.25 29.75 31.25Z" fill="#226D13"/>
<path d="M37.898 0.381319C38.0873 0.528204 38.239 0.709696 38.3429 0.9135C38.4467 1.1173 38.5003 1.33866 38.5 1.56257V3.12507H40.25C41.6424 3.12507 42.9777 3.61893 43.9623 4.49801C44.9469 5.37708 45.5 6.56937 45.5 7.81257V46.8751H50.75C51.2141 46.8751 51.6592 47.0397 51.9874 47.3327C52.3156 47.6257 52.5 48.0232 52.5 48.4376C52.5 48.852 52.3156 49.2494 51.9874 49.5424C51.6592 49.8354 51.2141 50.0001 50.75 50.0001H5.25C4.78587 50.0001 4.34075 49.8354 4.01256 49.5424C3.68437 49.2494 3.5 48.852 3.5 48.4376C3.5 48.0232 3.68437 47.6257 4.01256 47.3327C4.34075 47.0397 4.78587 46.8751 5.25 46.8751H10.5V4.68757C10.5001 4.31111 10.6524 3.94732 10.9289 3.66312C11.2054 3.37891 11.5875 3.1934 12.005 3.14069L36.505 0.0156942C36.753 -0.0159247 37.0057 0.000354496 37.246 0.0634315C37.4863 0.126509 37.7086 0.234913 37.898 0.381319ZM40.25 6.25007H38.5V46.8751H42V7.81257C42 7.39817 41.8156 7.00074 41.4874 6.70772C41.1592 6.41469 40.7141 6.25007 40.25 6.25007ZM14 6.04382V46.8751H35V3.36569L14 6.04382Z" fill="#226D13"/>
</g>
<defs>
<clipPath id="clip0_51_488">
<rect width="56" height="50" fill="white"/>
</clipPath>
</defs>
</svg>
