<svg width="21" height="20" viewBox="0 0 21 20" fill="none" xmlns="http://www.w3.org/2000/svg">
<path opacity="0.5" d="M15.5635 13.1073C15.4878 13.0387 15.4688 12.9226 15.5316 12.842C16.7188 11.3173 17.2448 9.45524 17.0063 7.60511C16.76 5.69427 15.7163 3.93709 14.084 2.68514C12.4517 1.43318 10.3512 0.778771 8.20278 0.852832C6.05433 0.926894 4.01636 1.72396 2.49659 3.08458C0.976827 4.44519 0.0873447 6.26901 0.00609857 8.19115C-0.0751476 10.1133 0.657834 11.992 2.0584 13.4514C3.45897 14.9108 5.42383 15.8433 7.55989 16.0623C9.69567 16.2813 11.8451 15.7708 13.5783 14.633C13.5785 14.6329 13.5784 14.6326 13.5782 14.6326C13.578 14.6326 13.5779 14.6328 13.578 14.633C13.6164 14.6798 13.6592 14.7247 13.7063 14.7676L18.7594 19.2884C19.0055 19.5087 19.3394 19.6325 19.6876 19.6326C20.0357 19.6328 20.3697 19.5091 20.616 19.2889C20.8622 19.0688 21.0007 18.7701 21.0008 18.4586C21.0009 18.1471 20.8627 17.8484 20.6166 17.628L15.5635 13.1073ZM15.7512 8.47738C15.7512 9.32548 15.5645 10.1653 15.2017 10.9488C14.8389 11.7324 14.3072 12.4443 13.6369 13.044C12.9665 13.6437 12.1707 14.1194 11.2949 14.444C10.4191 14.7685 9.48041 14.9356 8.53243 14.9356C7.58445 14.9356 6.64575 14.7685 5.76993 14.444C4.89411 14.1194 4.09832 13.6437 3.428 13.044C2.75768 12.4443 2.22595 11.7324 1.86317 10.9488C1.5004 10.1653 1.31368 9.32548 1.31368 8.47738C1.31368 6.76456 2.07422 5.1219 3.428 3.91076C4.78178 2.69962 6.6179 2.01921 8.53243 2.01921C10.447 2.01921 12.2831 2.69962 13.6369 3.91076C14.9906 5.1219 15.7512 6.76456 15.7512 8.47738Z" fill="#226D13"/>
</svg>
