<svg width="55" height="46" viewBox="0 0 55 46" fill="none" xmlns="http://www.w3.org/2000/svg">
<g clip-path="url(#clip0_51_478)">
<path d="M10.4846 8.76875C8.24991 10.6376 6.47726 12.8562 5.26786 15.298C4.05845 17.7398 3.43597 20.357 3.43597 23C3.43597 25.643 4.05845 28.2602 5.26786 30.702C6.47726 33.1438 8.24991 35.3624 10.4846 37.2312C10.7977 37.5024 10.9709 37.8655 10.967 38.2424C10.9631 38.6193 10.7823 38.9798 10.4636 39.2464C10.145 39.5129 9.71389 39.6641 9.26324 39.6673C8.81259 39.6706 8.37843 39.5257 8.05427 39.2639C5.50051 37.1281 3.47475 34.5926 2.09265 31.802C0.710562 29.0114 -0.000793457 26.0205 -0.000793457 23C-0.000793457 19.9795 0.710562 16.9886 2.09265 14.198C3.47475 11.4074 5.50051 8.87188 8.05427 6.73612C8.37843 6.47427 8.81259 6.32938 9.26324 6.33265C9.71389 6.33593 10.145 6.48711 10.4636 6.75363C10.7823 7.02016 10.9631 7.3807 10.967 7.75761C10.9709 8.13451 10.7977 8.49763 10.4846 8.76875ZM17.779 14.8695C15.2012 17.0261 13.7531 19.9506 13.7531 23C13.7531 26.0494 15.2012 28.9739 17.779 31.1305C17.9388 31.2641 18.0655 31.4228 18.152 31.5974C18.2385 31.7721 18.283 31.9592 18.283 32.1482C18.283 32.3373 18.2385 32.5244 18.152 32.699C18.0655 32.8737 17.9388 33.0323 17.779 33.166C17.6192 33.2996 17.4294 33.4057 17.2206 33.478C17.0119 33.5503 16.7881 33.5876 16.5621 33.5876C16.3361 33.5876 16.1123 33.5503 15.9035 33.478C15.6947 33.4057 15.505 33.2996 15.3452 33.166C13.7487 31.8311 12.4823 30.2462 11.6183 28.5019C10.7542 26.7576 10.3095 24.8881 10.3095 23C10.3095 21.1119 10.7542 19.2423 11.6183 17.498C12.4823 15.7537 13.7487 14.1689 15.3452 12.834C15.6679 12.5641 16.1057 12.4124 16.5621 12.4124C17.0185 12.4124 17.4562 12.5641 17.779 12.834C18.1017 13.1039 18.283 13.47 18.283 13.8517C18.283 14.2335 18.1017 14.5996 17.779 14.8695ZM37.2215 12.834C37.3811 12.7001 37.5708 12.5939 37.7796 12.5214C37.9884 12.449 38.2123 12.4117 38.4383 12.4117C38.6644 12.4117 38.8883 12.449 39.0971 12.5214C39.3059 12.5939 39.4956 12.7001 39.6552 12.834C41.2517 14.1689 42.5181 15.7537 43.3822 17.498C44.2462 19.2423 44.6909 21.1119 44.6909 23C44.6909 24.8881 44.2462 26.7576 43.3822 28.5019C42.5181 30.2462 41.2517 31.8311 39.6552 33.166C39.4954 33.2996 39.3057 33.4057 39.0969 33.478C38.8881 33.5503 38.6643 33.5876 38.4383 33.5876C38.2123 33.5876 37.9886 33.5503 37.7798 33.478C37.571 33.4057 37.3813 33.2996 37.2215 33.166C37.0617 33.0323 36.9349 32.8737 36.8484 32.699C36.7619 32.5244 36.7174 32.3373 36.7174 32.1482C36.7174 31.9592 36.7619 31.7721 36.8484 31.5974C36.9349 31.4228 37.0617 31.2641 37.2215 31.1305C39.7992 28.9739 41.2473 26.0494 41.2473 23C41.2473 19.9506 39.7992 17.0261 37.2215 14.8695C37.0614 14.736 36.9344 14.5773 36.8478 14.4027C36.7611 14.228 36.7165 14.0408 36.7165 13.8517C36.7165 13.6627 36.7611 13.4754 36.8478 13.3008C36.9344 13.1262 37.0614 12.9675 37.2215 12.834ZM44.5158 6.739C44.8381 6.46951 45.2752 6.31812 45.731 6.31812C46.1867 6.31812 46.6238 6.46951 46.9461 6.739C52.1026 11.0522 54.9995 16.902 54.9995 23.0014C54.9995 29.1009 52.1026 34.9506 46.9461 39.2639C46.622 39.5257 46.1878 39.6706 45.7372 39.6673C45.2865 39.6641 44.8554 39.5129 44.5368 39.2464C44.2181 38.9798 44.0373 38.6193 44.0334 38.2424C44.0295 37.8655 44.2027 37.5024 44.5158 37.2312C46.7505 35.3624 48.5232 33.1438 49.7326 30.702C50.942 28.2602 51.5644 25.643 51.5644 23C51.5644 20.357 50.942 17.7398 49.7326 15.298C48.5232 12.8562 46.7505 10.6376 44.5158 8.76875C44.1936 8.49917 44.0126 8.13361 44.0126 7.75243C44.0126 7.37126 44.1936 7.00569 44.5158 6.73612V6.739ZM34.3752 23C34.3752 24.525 33.6509 25.9875 32.3616 27.0659C31.0723 28.1442 29.3236 28.75 27.5002 28.75C25.6768 28.75 23.9282 28.1442 22.6388 27.0659C21.3495 25.9875 20.6252 24.525 20.6252 23C20.6252 21.475 21.3495 20.0125 22.6388 18.9341C23.9282 17.8558 25.6768 17.25 27.5002 17.25C29.3236 17.25 31.0723 17.8558 32.3616 18.9341C33.6509 20.0125 34.3752 21.475 34.3752 23Z" fill="#226D13"/>
</g>
<defs>
<clipPath id="clip0_51_478">
<rect width="55" height="46" fill="white"/>
</clipPath>
</defs>
</svg>
