<svg width="40" height="37" viewBox="0 0 40 37" fill="none" xmlns="http://www.w3.org/2000/svg">
<g clip-path="url(#clip0_51_585)">
<path d="M20 10.9937C18.9343 10.9937 17.8791 11.1878 16.8945 11.565C15.91 11.9423 15.0154 12.4952 14.2618 13.1922C13.5083 13.8892 12.9105 14.7167 12.5027 15.6275C12.0949 16.5382 11.885 17.5143 11.885 18.5C11.885 19.4858 12.0949 20.4619 12.5027 21.3726C12.9105 22.2833 13.5083 23.1108 14.2618 23.8078C15.0154 24.5049 15.91 25.0578 16.8945 25.435C17.8791 25.8122 18.9343 26.0064 20 26.0064C22.1522 26.0064 24.2163 25.2156 25.7382 23.8078C27.26 22.4001 28.115 20.4908 28.115 18.5C28.115 16.5092 27.26 14.5999 25.7382 13.1922C24.2163 11.7845 22.1522 10.9937 20 10.9937ZM14.385 18.5C14.385 17.1225 14.9766 15.8014 16.0296 14.8274C17.0826 13.8534 18.5108 13.3062 20 13.3062C21.4892 13.3062 22.9174 13.8534 23.9704 14.8274C25.0234 15.8014 25.615 17.1225 25.615 18.5C25.615 19.8775 25.0234 21.1986 23.9704 22.1727C22.9174 23.1467 21.4892 23.6939 20 23.6939C18.5108 23.6939 17.0826 23.1467 16.0296 22.1727C14.9766 21.1986 14.385 19.8775 14.385 18.5Z" fill="#226D13"/>
<path d="M24.49 3.10575C23.1725 -1.03362 16.8275 -1.03362 15.51 3.10575L15.275 3.84344C15.183 4.13239 15.0222 4.39863 14.8045 4.62265C14.5868 4.84667 14.3177 5.02279 14.0168 5.1381C13.716 5.2534 13.391 5.30497 13.0659 5.28902C12.7407 5.27308 12.4235 5.19002 12.1375 5.04594L11.4075 4.67594C7.30747 2.61319 2.82497 6.76181 5.05747 10.552L5.45497 11.2273C5.61073 11.4918 5.70053 11.7852 5.71776 12.086C5.735 12.3868 5.67925 12.6874 5.5546 12.9657C5.42995 13.2439 5.23955 13.4929 4.99737 13.6943C4.75518 13.8956 4.46735 14.0443 4.15497 14.1294L3.35747 14.3468C-1.11753 15.5655 -1.11753 21.4346 3.35747 22.6533L4.15497 22.8707C4.46735 22.9558 4.75518 23.1045 4.99737 23.3059C5.23955 23.5072 5.42995 23.7562 5.5546 24.0345C5.67925 24.3128 5.735 24.6133 5.71776 24.9141C5.70053 25.2149 5.61073 25.5083 5.45497 25.7729L5.05497 26.4481C2.82497 30.2406 7.30747 34.3892 11.4075 32.3219L12.1375 31.9542C12.4235 31.8101 12.7407 31.727 13.0659 31.7111C13.391 31.6952 13.716 31.7467 14.0168 31.862C14.3177 31.9773 14.5868 32.1535 14.8045 32.3775C15.0222 32.6015 15.183 32.8677 15.275 33.1567L15.51 33.8944C16.8275 38.0337 23.1725 38.0337 24.49 33.8944L24.725 33.1567C24.817 32.8677 24.9777 32.6015 25.1954 32.3775C25.4131 32.1535 25.6823 31.9773 25.9831 31.862C26.284 31.7467 26.6089 31.6952 26.9341 31.7111C27.2593 31.727 27.5765 31.8101 27.8625 31.9542L28.5925 32.3242C32.6925 34.3892 37.1775 30.2383 34.9425 26.4481L34.545 25.7729C34.3892 25.5083 34.2994 25.2149 34.2822 24.9141C34.2649 24.6133 34.3207 24.3128 34.4453 24.0345C34.57 23.7562 34.7604 23.5072 35.0026 23.3059C35.2448 23.1045 35.5326 22.9558 35.845 22.8707L36.6425 22.6533C41.1175 21.4346 41.1175 15.5655 36.6425 14.3468L35.845 14.1294C35.5326 14.0443 35.2448 13.8956 35.0026 13.6943C34.7604 13.4929 34.57 13.2439 34.4453 12.9657C34.3207 12.6874 34.2649 12.3868 34.2822 12.086C34.2994 11.7852 34.3892 11.4918 34.545 11.2273L34.945 10.552C37.1775 6.7595 32.69 2.61319 28.5925 4.67825L27.8625 5.04594C27.5765 5.19002 27.2593 5.27308 26.9341 5.28902C26.6089 5.30497 26.284 5.2534 25.9831 5.1381C25.6823 5.02279 25.4131 4.84667 25.1954 4.62265C24.9777 4.39863 24.817 4.13239 24.725 3.84344L24.49 3.10575ZM17.9075 3.76019C18.5225 1.82925 21.4775 1.82925 22.0925 3.76019L22.3275 4.49788C22.525 5.11782 22.8701 5.68902 23.3373 6.16958C23.8045 6.65015 24.3821 7.0279 25.0277 7.27514C25.6732 7.52239 26.3704 7.63286 27.0682 7.59845C27.7659 7.56405 28.4465 7.38564 29.06 7.07631L29.7875 6.70631C31.6975 5.74663 33.7875 7.67756 32.7475 9.44663L32.35 10.1219C32.0161 10.6894 31.8237 11.3189 31.7869 11.9641C31.7501 12.6094 31.8698 13.2541 32.1373 13.851C32.4049 14.4479 32.8134 14.9818 33.3329 15.4137C33.8525 15.8457 34.4699 16.1646 35.14 16.3471L35.935 16.5645C38.0225 17.1334 38.0225 19.8668 35.935 20.4356L35.1375 20.653C34.4673 20.8357 33.8498 21.1549 33.3302 21.5871C32.8107 22.0193 32.4023 22.5535 32.135 23.1507C31.8677 23.7478 31.7483 24.3928 31.7855 25.0382C31.8227 25.6836 32.0156 26.3131 32.35 26.8806L32.75 27.5535C33.7875 29.3202 31.7 31.2535 29.7875 30.2915L29.06 29.9238C28.4463 29.6145 27.7656 29.4362 27.0677 29.4019C26.3698 29.3677 25.6725 29.4783 25.0269 29.7258C24.3813 29.9733 23.8038 30.3513 23.3367 30.8321C22.8696 31.313 22.5247 31.8844 22.3275 32.5046L22.0925 33.2399C21.4775 35.1709 18.5225 35.1709 17.9075 33.2399L17.6725 32.5023C17.4748 31.8826 17.1299 31.3117 16.6628 30.8314C16.1957 30.3511 15.6184 29.9735 14.9732 29.7263C14.3279 29.4791 13.6311 29.3685 12.9336 29.4027C12.2362 29.4369 11.5559 29.6149 10.9425 29.9238L10.2125 30.2938C8.30247 31.2535 6.21247 29.3226 7.25247 27.5535L7.64997 26.8806C7.98485 26.313 8.1781 25.6833 8.21554 25.0376C8.25298 24.3919 8.13366 23.7467 7.86633 23.1492C7.599 22.5518 7.19046 22.0172 6.67067 21.5849C6.15088 21.1526 5.53303 20.8333 4.86247 20.6507L4.06497 20.4333C1.97747 19.8644 1.97747 17.1311 4.06497 16.5622L4.86247 16.3448C5.53199 16.1619 6.14882 15.8429 6.66783 15.411C7.18683 14.9791 7.59488 14.4454 7.8621 13.8488C8.12933 13.2523 8.24897 12.608 8.21226 11.9631C8.17556 11.3183 7.98344 10.6892 7.64997 10.1219L7.24997 9.44663C6.21247 7.67988 8.29997 5.74663 10.2125 6.70863L10.9425 7.07631C11.5559 7.38521 12.2362 7.56326 12.9336 7.59744C13.6311 7.63162 14.3279 7.52105 14.9732 7.27384C15.6184 7.02663 16.1957 6.64903 16.6628 6.16871C17.1299 5.68838 17.4748 5.1175 17.6725 4.49788L17.9075 3.76019Z" fill="#226D13"/>
</g>
<defs>
<clipPath id="clip0_51_585">
<rect width="40" height="37" fill="white"/>
</clipPath>
</defs>
</svg>
